<svg width="85" height="24" fill="none" xmlns="http://www.w3.org/2000/svg"><path d="M13.094 11.182c.019-1.568.806-3.016 2.085-3.837-.81-1.21-2.12-1.949-3.532-1.995-1.486-.163-2.926.929-3.683.929-.772 0-1.938-.913-3.193-.886C3.119 5.45 1.616 6.406.813 7.915-.9 11.01.378 15.559 2.017 18.06c.82 1.225 1.779 2.593 3.033 2.544 1.227-.053 1.686-.817 3.167-.817 1.468 0 1.898.817 3.178.787 1.317-.023 2.147-1.23 2.938-2.467a10.327 10.327 0 001.344-2.86c-1.565-.69-2.582-2.291-2.583-4.066zm-2.563-7.955A4.639 4.639 0 0011.517 0 4.329 4.329 0 008.68 1.534a4.407 4.407 0 00-1.012 3.107 3.57 3.57 0 002.864-1.414z" fill="#fff"/><path fill-rule="evenodd" clip-rule="evenodd" d="M23.095 16.944h4.028l.966 2.983h1.735L26.01 8.89h-1.772l-3.815 11.038h1.706l.967-2.983zm3.61-1.377h-3.193l1.575-4.842h.044l1.574 4.842zm8.821 5.095c1.933 0 3.214-1.607 3.214-4.107 0-2.494-1.288-4.109-3.244-4.109-1.006-.034-1.948.513-2.453 1.423h-.029V12.53h-1.53v10.71h1.581v-3.986h.037c.483.916 1.424 1.463 2.424 1.408zm-.447-6.808c1.23 0 2.036 1.071 2.036 2.7 0 1.645-.806 2.708-2.036 2.708-1.208 0-2.02-1.086-2.02-2.708 0-1.606.812-2.7 2.02-2.7zm8.956 6.808c1.933 0 3.215-1.607 3.215-4.107 0-2.494-1.29-4.109-3.245-4.109-1.006-.034-1.948.513-2.453 1.423h-.029V12.53h-1.53v10.71h1.581v-3.986h.037c.483.916 1.424 1.463 2.424 1.408zm-.447-6.808c1.23 0 2.036 1.071 2.036 2.7 0 1.645-.806 2.708-2.036 2.708-1.208 0-2.02-1.086-2.02-2.707 0-1.607.812-2.701 2.02-2.701z" fill="#fff"/><path d="M52.673 17.036c.118 1.095 1.136 1.813 2.527 1.813 1.332 0 2.291-.718 2.291-1.706 0-.856-.578-1.37-1.947-1.72l-1.37-.345c-1.94-.49-2.84-1.438-2.84-2.976 0-1.905 1.588-3.213 3.843-3.213 2.234 0 3.764 1.308 3.816 3.213h-1.596c-.096-1.102-.968-1.767-2.241-1.767-1.274 0-2.146.673-2.146 1.652 0 .78.557 1.24 1.919 1.591l1.164.299c2.168.536 3.068 1.445 3.068 3.06 0 2.065-1.574 3.358-4.079 3.358-2.343 0-3.925-1.263-4.027-3.26h1.618zm9.6-6.369v1.904h1.464v1.309h-1.465v4.436c0 .69.294 1.01.938 1.01a4.53 4.53 0 00.52-.038v1.3c-.29.057-.584.083-.878.077-1.56 0-2.168-.612-2.168-2.173V13.88h-1.12v-1.308h1.12v-1.904h1.589z" fill="#fff"/><path fill-rule="evenodd" clip-rule="evenodd" d="M68.323 12.444c-2.226 0-3.654 1.591-3.654 4.124 0 2.539 1.413 4.123 3.654 4.123 2.24 0 3.654-1.584 3.654-4.123 0-2.533-1.42-4.124-3.654-4.124zm0 1.362c1.281 0 2.043 1.025 2.043 2.762 0 1.744-.762 2.761-2.043 2.761-1.282 0-2.044-1.017-2.044-2.761 0-1.73.762-2.762 2.044-2.762z" fill="#fff"/><path d="M73.178 12.53h1.508v1.37h.037c.21-.882.984-1.489 1.853-1.454.182 0 .364.02.542.061v1.546a2.125 2.125 0 00-.71-.1 1.56 1.56 0 00-1.232.53 1.712 1.712 0 00-.416 1.321v4.774h-1.582V12.53z" fill="#fff"/><path fill-rule="evenodd" clip-rule="evenodd" d="M81.065 20.691c1.742 0 3.104-1.003 3.317-2.464H82.88c-.288.747-1.011 1.207-1.779 1.132a1.964 1.964 0 01-1.528-.65 2.153 2.153 0 01-.544-1.63v-.099h5.441v-.566c0-2.44-1.34-3.97-3.472-3.97-2.167 0-3.565 1.638-3.565 4.162 0 2.516 1.39 4.085 3.632 4.085zm1.823-4.865h-3.852a2.084 2.084 0 01.574-1.449 1.909 1.909 0 011.388-.594 1.814 1.814 0 011.372.59c.359.388.547.914.518 1.453z" fill="#fff"/><path d="M22.455 3.274h.68a.828.828 0 00.655-.204.906.906 0 00.301-.642c0-.489-.352-.805-.95-.805a.877.877 0 00-.68.19.957.957 0 00-.344.641h-.745c.026-.46.233-.89.574-1.183.34-.294.782-.428 1.22-.368 1 0 1.703.584 1.703 1.426.005.581-.38 1.087-.922 1.213v.063c.65.03 1.155.603 1.13 1.282a1.794 1.794 0 01-.632 1.205c-.357.297-.813.43-1.265.372a1.636 1.636 0 01-1.273-.362 1.785 1.785 0 01-.634-1.207h.757c.045.507.492.834 1.15.834.658 0 1.087-.367 1.087-.886 0-.525-.404-.849-1.111-.849h-.7v-.72z" fill="#fff"/><path fill-rule="evenodd" clip-rule="evenodd" d="M27.803 3.53c-.91.06-1.425.475-1.425 1.196.002.341.141.666.384.895.244.228.568.338.893.303.464.022.904-.218 1.151-.629h.06v.563h.729V3.123c0-.846-.542-1.345-1.502-1.345-.87 0-1.49.44-1.567 1.128h.732c.085-.283.377-.445.799-.445.517 0 .784.24.784.662v.345l-1.038.063zm1.038.52v.334a.958.958 0 01-.318.657.877.877 0 01-.674.218c-.411 0-.71-.21-.71-.57 0-.353.239-.54.766-.577l.936-.063z" fill="#fff"/><path d="M31.389 2.443V5.78h-.756V1.778h2.523v.665h-1.767z" fill="#fff"/><path fill-rule="evenodd" clip-rule="evenodd" d="M36.031 5.913c.968 0 1.583-.797 1.583-2.069 0-1.272-.615-2.066-1.59-2.066-.5-.012-.965.269-1.203.728h-.057v-.661h-.728v5.333h.756V5.241h.06c.235.445.695.707 1.18.672zm-.218-3.425c.64 0 1.024.51 1.024 1.356 0 .85-.383 1.36-1.027 1.36-.634 0-1.032-.522-1.032-1.356 0-.838.398-1.36 1.035-1.36z" fill="#fff"/><path d="M38.682 7.214v-.68c.081.01.164.016.246.015a.661.661 0 00.693-.559l.057-.195-1.387-4.017h.824l.96 3.18h.06l.957-3.18h.802l-1.428 4.168c-.328.974-.69 1.286-1.471 1.286-.063 0-.243-.007-.313-.018zm3.863-2.479h.753c.074.353.39.537.834.537.503 0 .812-.232.812-.592 0-.386-.277-.57-.812-.57h-.574v-.614h.564c.457 0 .69-.183.69-.518 0-.294-.226-.518-.69-.518-.423 0-.732.187-.781.503h-.73c.114-.755.786-1.276 1.51-1.172.911 0 1.432.43 1.432 1.106a.817.817 0 01-.604.82v.062c.432.059.754.446.75.901 0 .76-.62 1.264-1.567 1.264-.837 0-1.517-.4-1.587-1.209zM46.8 5.78V1.779h.75V4.53h.06l1.765-2.753h.75V5.78h-.75V3.013h-.056l-1.77 2.768h-.75zm7.425-3.337h-1.207V5.78h-.757V2.443h-1.206v-.665h3.17v.665z" fill="#fff"/><path fill-rule="evenodd" clip-rule="evenodd" d="M57.095 5.935c.75.085 1.449-.403 1.662-1.158h-.73a.907.907 0 01-.91.485.992.992 0 01-.753-.337 1.087 1.087 0 01-.267-.81v-.044h2.705v-.275c0-1.257-.644-2.018-1.71-2.018a1.735 1.735 0 00-1.34.624 1.902 1.902 0 00-.427 1.467c-.07.53.087 1.063.428 1.461a1.7 1.7 0 001.342.605zm.936-2.448h-1.934c-.004-.276.1-.542.286-.737a.958.958 0 01.706-.3.905.905 0 01.69.3c.18.198.271.466.252.737zm3.234-1.709h1.728c.75 0 1.189.397 1.189 1.018a.853.853 0 01-.647.845v.063c.464.03.825.436.819.922 0 .699-.503 1.155-1.344 1.155h-1.745V1.778zm.75.606v1.037h.75c.456 0 .675-.184.675-.523 0-.312-.19-.514-.592-.514h-.833zm0 2.79V4.001h.802c.51 0 .781.188.781.589 0 .378-.24.584-.686.584h-.897z" fill="#fff"/></svg>