<svg width="224" height="55" fill="none" xmlns="http://www.w3.org/2000/svg"><path d="M87.763 54.825h1.509V51.85h2.817c1.308 0 3.459 0 3.459-2.35 0-2.36-2.15-2.36-3.459-2.36h-4.317v7.685h-.009zm1.509-4.276v-2.108h3.142c.867 0 1.625.066 1.625 1.05 0 .983-.758 1.058-1.625 1.058h-3.142zm8.084 4.276h1.617l.817-1.759h4.467l.809 1.759h1.6l-3.767-7.684h-1.734l-3.809 7.684zm3.068-3.05l1.616-3.434 1.626 3.434h-3.242zm10.018 3.05h1.508v-3.034h2.409l2.259 3.034h1.858l-2.375-3.134c1.142-.058 2.159-.842 2.159-2.259 0-1.875-1.309-2.283-3.151-2.283h-4.667v7.676zm1.508-4.276v-2.167h2.934c1.242 0 1.867.184 1.867 1.084 0 .9-.633 1.083-1.867 1.083h-2.934zm12.544-3.4h-1.509v7.684h1.509V47.15zm10.71 2.325c-.234-.675-.867-1.267-2.709-1.267-1.033 0-2.059.259-2.059.959 0 .333.192.675 1.742.858l1.826.275c1.733.267 2.758.925 2.758 2.209 0 1.809-1.742 2.492-3.809 2.492-3.317 0-4.133-1.634-4.317-2.217l1.45-.45c.284.558.851 1.375 2.901 1.375 1.242 0 2.258-.408 2.258-1.075 0-.492-.575-.817-1.683-.95l-1.85-.258c-1.792-.242-2.784-1.017-2.784-2.176 0-2.284 3-2.284 3.6-2.284 3.343 0 3.901 1.526 4.101 2.042l-1.425.467zm57.275-14.994c.625 5.343 3.417 4.543 3.567 5.01 0 0-10.768-.017-10.768-.034-.05-.192 3.092-.058 2.467-4.75l-2.809-20.862c-.125-.55-.125-1.184-.416-1.034-.225.1-9.485 22.529-9.485 22.529-.142.375-.375.608-.675.075-.217-.384-8.677-18.995-8.677-18.995-.416-.933-1.158-2.417-1.283-2.675-.217-.467-.542-.525-.517 1.033l-2.192 21.137c-.533 3.684 2.951 3.409 2.901 3.65h-7.635c-.083-.191 2.567.159 3.151-3.717l2.508-23.345c-.191-4.517-3.367-4.276-3.367-4.65h8.018l.117.25 8.509 18.569c.125.225.2.333.267.475.25.517.225.892.508.183l8.335-19.503 7.71.025c.05.267-3.101.134-3.101 4.01l2.867 22.62zM16.66 38.447l-4.358.009c-1.509-.059-3.326.225-3.326-1.576V12.327c0-3.792 4.21-3.81 4.484-4.1H.5c-.175.258 3.967.374 3.967 4.242v23.678C4.41 39.281 0 39.356 0 39.54h22.945l1.275-6.776c-.475-.05-.133 5.593-7.56 5.684zm190.596-14.543l.009 7.81v4.108c.033 2.375-.192 2.65 1.358 2.667l8.477-.017c6.776-.408 5.575-5.167 6.15-5.284l-.2 6.368h-23.82c-.1-.233 3.542.367 3.542-4.834V12.777c0-5.21-3.35-4.417-3.308-4.826h23.586l.2 6.268c-.466-.042.776-4.91-6.242-5.343h-7.826c-1.167.3-1.917-.5-1.917 2.6l-.009 6.752.025 1.508c0 1.15.025 1.259 1.642 1.259h7.568c3.817 0 3.301-3.45 3.642-3.45.009 0 0 8.167 0 8.167-.341 0 .167-3.784-3.458-3.667h-7.66c-1.684-.033-1.742.575-1.742 1.725l-.017.134zM65.56 36.264c.442 3.9 3.417 2.908 3.417 3.284l-8.318.008c.034-.375 3.334-.017 3.284-3.534V12.244c.058-4.11-3.517-4.118-3.617-4.435h8.351l17.27 21.42-.059-17.386c-.117-4.192-3.326-3.9-3.376-4.125h8.71c-.033.208-3.442.291-3.617 4.125l-.033 26.904s.3 2.042-.942.434c-.542-.709-20.762-26.32-20.762-26.32-.191-.218-.275.016-.291.65l-.017 22.411v.342zm-11.185-.7L42.757 7.976c-.842-.942-1.142.134-1.142.134-1.142 2.658-11.76 28.212-11.76 28.212-1.442 3.409-3.326 3-3.326 3.234h7.51c0-.383-4.051.242-2.66-3.3l4.018-9.844c.417-.616.442-.808 1.442-.808 1.659 0 6.734-.008 7.501-.008.925 0 .967 0 1.359.908l3.792 9.31c1.117 3.717-2.267 3.509-2.217 3.742h10.668c.092-.317-1.633.758-3.567-3.992zm-16.82-11.477c-.833 0-.716-.492-.4-1.267 0 0 2.834-7.068 3.168-7.926.433-1.1.9-.884 1.225.058l2.842 7.985c.292.892.642 1.142-.317 1.142h-6.517v.008zm115.06-17.786L139.838 0l-12.769 6.301 12.769-3.909 12.777 3.909zm-12.71.959c-9.935 0-16.37 7.917-16.37 16.344 0 8.426 6.351 15.935 16.295 15.935 9.943 0 16.46-7.51 16.46-15.936S149.856 7.26 139.905 7.26zm-.067 31.104h-.1c-6.109 0-10.152-5.734-10.152-14.685 0-10.252 4.134-15.22 10.244-15.22.008 0 .008.009.008.009 6.101.008 10.251 4.967 10.251 15.21 0 8.902-4.192 14.62-10.251 14.686zm-30.255-.067c7.193-.125 10.394-5.109 11.044-5.342.308-.117-3.518 6.534-11.135 6.534-17.136 0-16.828-15.527-16.828-15.527.525-10.902 9.351-17.403 17.794-16.51 2.267.24 3.251.6 4.918 1.124.775.259 2.875 1.392 3.717 1.084.583-.217 1.017-1.459 1.167-1.534l.075 8.51c-.609 0-2.484-8.185-10.643-8.185-6.685 0-11.752 7.643-11.635 15.12.174 12.51 8.901 14.76 11.526 14.726z" fill="#231F20"/></svg>