<svg width="102" height="31" fill="none" xmlns="http://www.w3.org/2000/svg"><g filter="url(#filter0_d)"><path d="M30.177 3.611h.643a.812.812 0 00.62-.183.8.8 0 00.286-.578c0-.44-.334-.724-.9-.724a.862.862 0 00-.643.17.849.849 0 00-.327.577h-.705c.024-.414.221-.8.543-1.064a1.51 1.51 0 011.155-.331c.947 0 1.613.526 1.613 1.283a1.11 1.11 0 01-.873 1.091v.057a1.115 1.115 0 011.07 1.153 1.59 1.59 0 01-.598 1.084c-.338.267-.77.388-1.198.335-.43.058-.864-.06-1.205-.326a1.583 1.583 0 01-.601-1.086h.717c.043.457.466.751 1.089.751s1.03-.33 1.03-.797c0-.473-.384-.764-1.053-.764h-.663V3.61z" fill="#fff"/><path fill-rule="evenodd" clip-rule="evenodd" d="M35.24 3.842c-.862.053-1.349.427-1.349 1.075.001.307.133.6.364.805.23.205.537.304.845.273.44.02.856-.196 1.09-.566h.057v.506h.69v-2.46c0-.76-.513-1.21-1.423-1.21-.823 0-1.41.397-1.483 1.015h.693c.08-.254.357-.4.756-.4.49 0 .743.215.743.595v.31l-.983.057zm.983.466v.301a.847.847 0 01-.302.592.86.86 0 01-.638.196c-.389 0-.672-.189-.672-.513 0-.318.226-.486.726-.52l.886-.056z" fill="#fff"/><path d="M38.636 2.863v3.003h-.716v-3.6h2.389v.597h-1.673z" fill="#fff"/><path fill-rule="evenodd" clip-rule="evenodd" d="M43.032 5.985c.915 0 1.498-.717 1.498-1.861 0-1.145-.583-1.859-1.506-1.859a1.262 1.262 0 00-1.139.655h-.053v-.595h-.69v4.798h.716V5.38h.057c.222.4.657.636 1.117.605zm-.208-3.081c.607 0 .97.46.97 1.22 0 .764-.363 1.223-.973 1.223-.6 0-.976-.47-.976-1.22 0-.754.377-1.223.98-1.223z" fill="#fff"/><path d="M45.54 7.156v-.612c.078.01.156.014.234.013a.62.62 0 00.657-.502l.053-.176-1.313-3.614h.78l.91 2.86h.056l.906-2.86h.76l-1.353 3.75c-.31.876-.653 1.157-1.393 1.157-.06 0-.23-.006-.296-.016zm3.66-2.23h.712c.07.317.37.483.79.483.476 0 .769-.209.769-.533 0-.347-.263-.513-.77-.513h-.543v-.552h.534c.432 0 .653-.165.653-.466 0-.264-.213-.466-.653-.466-.4 0-.694.169-.74.453h-.69a1.27 1.27 0 011.43-1.055c.862 0 1.355.387 1.355.995a.74.74 0 01-.572.738v.056a.81.81 0 01.71.81c0 .685-.588 1.138-1.484 1.138-.792 0-1.436-.36-1.502-1.088zm4.028.94v-3.6h.71v2.476h.056l1.672-2.477h.71v3.601h-.71v-2.49h-.053l-1.675 2.49h-.71zm7.03-3.003h-1.142v3.003h-.717V2.863h-1.143v-.598h3.002v.598z" fill="#fff"/><path fill-rule="evenodd" clip-rule="evenodd" d="M62.976 6.005a1.474 1.474 0 001.573-1.042h-.69a.87.87 0 01-.862.437.961.961 0 01-.714-.304.946.946 0 01-.253-.728v-.04h2.562V4.08c0-1.13-.61-1.815-1.619-1.815-.485-.004-.948.2-1.269.562-.32.36-.468.842-.404 1.32-.066.475.082.956.405 1.314a1.65 1.65 0 001.271.544zm.886-2.202H62.03a.917.917 0 01.271-.664.93.93 0 01.669-.269.878.878 0 01.654.27c.17.178.256.419.238.663zm3.063-1.538h1.635c.71 0 1.126.357 1.126.916a.775.775 0 01-.613.76v.057c.44.027.781.392.776.83 0 .628-.476 1.038-1.272 1.038h-1.652v-3.6zm.71.546v.932h.709c.433 0 .64-.165.64-.47 0-.28-.18-.462-.56-.462h-.79zm0 2.51V4.266h.759c.483 0 .74.168.74.529 0 .34-.227.526-.65.526h-.85zm-33.26 8.139v1.44h3.464c-.08.8-.403 1.44-.806 1.84-.483.48-1.289 1.04-2.658 1.04-2.176 0-3.787-1.68-3.787-3.84 0-2.159 1.692-3.838 3.787-3.838 1.127 0 2.014.48 2.658 1.04l1.048-1.04c-.887-.8-2.015-1.44-3.626-1.44-2.9 0-5.398 2.4-5.398 5.279s2.498 5.278 5.398 5.278c1.611 0 2.74-.48 3.706-1.52.967-.96 1.29-2.319 1.29-3.359 0-.32 0-.64-.081-.88h-4.995zm8.943-1.039c-1.934 0-3.465 1.44-3.465 3.44 0 1.918 1.531 3.438 3.465 3.438s3.464-1.44 3.464-3.439c0-2.08-1.53-3.439-3.464-3.439zm4.028 3.44c0-2 1.53-3.44 3.465-3.44 1.933 0 3.464 1.36 3.464 3.44 0 1.998-1.53 3.438-3.465 3.438-1.933 0-3.464-1.52-3.464-3.439zm1.531-.081c0 1.2.886 2.08 1.934 2.08 1.047 0 1.934-.88 1.934-2.08 0-1.28-.887-2.08-1.934-2.08-1.048 0-1.934.88-1.934 2.08zm-7.493 0c0 1.2.886 2.08 1.934 2.08 1.047 0 1.934-.88 1.934-2.08 0-1.28-.887-2.08-1.934-2.08s-1.934.88-1.934 2.08zm26.668-3.359c1.773 0 2.579 1.36 2.901 2.16l.161.4-4.592 1.919c.402.72.886 1.04 1.692 1.04.805 0 1.289-.4 1.692-.96l1.127.8c-.322.56-1.289 1.519-2.82 1.519-1.933 0-3.383-1.52-3.383-3.439 0-2.08 1.45-3.439 3.222-3.439zM66.28 15.7c0-1.28 1.048-2 1.773-2 .564 0 1.128.32 1.289.72L66.28 15.7zm-2.256 3.279h-1.53V8.982h1.53v9.997zm-3.948-5.838c-.403-.4-1.047-.8-1.853-.8-1.692 0-3.303 1.52-3.303 3.439 0 1.92 1.53 3.359 3.303 3.359.806 0 1.45-.4 1.773-.8h.08v.48c0 1.28-.725 2-1.853 2-.886 0-1.53-.64-1.692-1.2l-1.289.56c.403.879 1.37 1.999 3.062 1.999 1.772 0 3.222-1.04 3.222-3.52v-6.077h-1.45v.56zM56.37 15.78c0 1.2.886 2.08 1.934 2.08 1.047 0 1.853-.88 1.853-2.08 0-1.2-.806-2.08-1.853-2.08-1.048 0-1.934.88-1.934 2.08zm21.592-6.798h-3.625v9.997h1.53V15.22h2.095c1.692 0 3.304-1.2 3.304-3.119 0-1.919-1.612-3.119-3.304-3.119zm-2.094 4.799h2.175c1.047 0 1.692-.88 1.772-1.76 0-.72-.644-1.679-1.772-1.679h-2.175v3.439zm11.44-1.44c-1.127 0-2.255.48-2.658 1.52l1.37.56c.322-.56.805-.72 1.37-.72.805 0 1.53.48 1.61 1.28v.08c-.241-.16-.886-.4-1.53-.4-1.45 0-2.9.8-2.9 2.239 0 1.36 1.208 2.239 2.497 2.239 1.047 0 1.53-.48 1.934-.96h.08v.8h1.45V15.14c-.16-1.76-1.53-2.799-3.222-2.799zm-1.37 4.639c0 .64.726.88 1.21.88.805 0 1.61-.64 1.772-1.6l-.12-.049c-.351-.142-.67-.271-1.25-.271-.725 0-1.611.24-1.611 1.04zm9.67-4.399L93.914 16.9h-.08l-1.773-4.319H90.45l2.659 6.078-1.531 3.359h1.53l4.11-9.437h-1.612zM83.602 18.98h-1.531V8.982h1.53v9.997z" fill="#fff"/><path d="M4.403.266C4.16.506 4 .906 4 1.386v17.673c0 .48.161.88.403 1.12l.08.08 9.99-9.917v-.16L4.404.266z" fill="url(#paint0_linear)"/><path d="M17.777 13.7l-3.303-3.278v-.24l3.303-3.279.08.08 3.949 2.24c1.128.64 1.128 1.679 0 2.319L17.777 13.7z" fill="url(#paint1_linear)"/><path d="M17.858 13.62l-3.384-3.358-10.071 9.996c.403.4.967.4 1.692.08l11.763-6.717z" fill="url(#paint2_linear)"/><path d="M17.858 6.903L6.095.266c-.725-.4-1.29-.32-1.692.08l10.07 9.916 3.385-3.359z" fill="url(#paint3_linear)"/><path opacity=".2" d="M17.777 13.54L6.095 20.099c-.645.4-1.209.32-1.612 0l-.08.08.08.08c.403.32.967.4 1.612 0l11.682-6.717z" fill="#000"/><path opacity=".12" d="M4.403 20.098c-.242-.24-.323-.64-.323-1.12v.08c0 .48.162.88.403 1.12v-.08h-.08zm17.403-8.796l-4.029 2.239.08.08 3.949-2.24c.564-.32.805-.72.805-1.119 0 .4-.322.72-.805 1.04z" fill="#000"/><path opacity=".25" d="M6.095.346l15.71 8.876c.484.32.806.64.806 1.04 0-.4-.241-.8-.805-1.12L6.095.266c-1.128-.64-2.015-.08-2.015 1.2v.08c0-1.28.887-1.84 2.015-1.2z" fill="#fff"/></g><defs><linearGradient id="paint0_linear" x1="10.072" y1="-11.671" x2="-5.919" y2="-7.315" gradientUnits="userSpaceOnUse"><stop stop-color="#00A0FF"/><stop offset=".007" stop-color="#00A1FF"/><stop offset=".26" stop-color="#00BEFF"/><stop offset=".512" stop-color="#00D2FF"/><stop offset=".76" stop-color="#00DFFF"/><stop offset="1" stop-color="#00E3FF"/></linearGradient><linearGradient id="paint1_linear" x1="23.284" y1="2.161" x2="3.788" y2="2.161" gradientUnits="userSpaceOnUse"><stop stop-color="#FFE000"/><stop offset=".409" stop-color="#FFBD00"/><stop offset=".775" stop-color="orange"/><stop offset="1" stop-color="#FF9C00"/></linearGradient><linearGradient id="paint2_linear" x1="4.147" y1="5.075" x2="-8.575" y2="26.594" gradientUnits="userSpaceOnUse"><stop stop-color="#FF3A44"/><stop offset="1" stop-color="#C31162"/></linearGradient><linearGradient id="paint3_linear" x1="-3.426" y1="-2.469" x2="2.209" y2="7.152" gradientUnits="userSpaceOnUse"><stop stop-color="#32A071"/><stop offset=".069" stop-color="#2DA771"/><stop offset=".476" stop-color="#15CF74"/><stop offset=".801" stop-color="#06E775"/><stop offset="1" stop-color="#00F076"/></linearGradient><filter id="filter0_d" x="0" y="0" width="101.219" height="30.178" filterUnits="userSpaceOnUse" color-interpolation-filters="sRGB"><feFlood flood-opacity="0" result="BackgroundImageFix"/><feColorMatrix in="SourceAlpha" values="0 0 0 0 0 0 0 0 0 0 0 0 0 0 0 0 0 0 127 0" result="hardAlpha"/><feOffset dy="4"/><feGaussianBlur stdDeviation="2"/><feComposite in2="hardAlpha" operator="out"/><feColorMatrix values="0 0 0 0 0 0 0 0 0 0 0 0 0 0 0 0 0 0 0.25 0"/><feBlend in2="BackgroundImageFix" result="effect1_dropShadow"/><feBlend in="SourceGraphic" in2="effect1_dropShadow" result="shape"/></filter></defs></svg>