<svg width="138" height="15" fill="none" xmlns="http://www.w3.org/2000/svg"><path d="M1.375 3.104h1.053V6.95l3.851-3.846h1.472L4.464 6.29 7.842 11H6.488L3.706 7.02 2.428 8.25V11H1.375V3.104zm9.527 6.838a1.157 1.157 0 00.365.193c.075.025.152.047.23.065.083.014.162.021.237.021.161 0 .3-.021.414-.064a.995.995 0 00.51-.43c.054-.097.097-.197.129-.3L9.548 3.103h1.23l2.61 5.232 1.977-5.232h1.192l-2.481 5.903c-.172.394-.333.73-.483 1.01a2.832 2.832 0 01-.484.677 1.54 1.54 0 01-.59.381 2.26 2.26 0 01-.796.124c-.16 0-.318-.022-.472-.065a.963.963 0 01-.355-.166l.006-1.026zm7.947-6.838h6.311V11h-1.058V4.028h-4.2V11h-1.053V3.104zm9.35 0h1.052v6.387h.021l4.018-6.387h1.22V11h-1.06V4.576h-.021L29.418 11h-1.22V3.104zm8.688 0h6.424v.924h-2.686V11h-1.058V4.028h-2.68v-.924zm8.785 0h1.058V6.36h2.1c.473 0 .883.054 1.23.162.348.107.634.26.86.461.225.2.393.444.505.73.11.287.166.61.166.968 0 .35-.056.67-.166.956a2.003 2.003 0 01-.49.73c-.21.2-.472.357-.783.468-.308.11-.661.166-1.059.166h-3.42V3.104zm3.282 6.972c.215 0 .413-.023.596-.07a1.26 1.26 0 00.483-.23c.136-.112.242-.255.317-.43.08-.18.118-.401.118-.666 0-.262-.04-.482-.123-.661a1.021 1.021 0 00-.344-.43 1.414 1.414 0 00-.548-.236 3.465 3.465 0 00-.73-.07H46.73v2.793h2.224zm13.923-2.33l-1.203-3.514-1.332 3.513h2.535zM58.076 11l2.96-8.019h1.283L65.18 11h-1.17l-.833-2.417h-3.104L59.193 11h-1.117zm12.7-4.2c.559 0 .962-.118 1.209-.355.247-.236.37-.58.37-1.03 0-.452-.123-.796-.37-1.032-.247-.237-.65-.355-1.209-.355h-2.159V6.8h2.16zm-3.212-3.696h3.32c.433 0 .807.056 1.122.167.319.111.582.269.79.473.208.2.362.442.462.725.104.283.156.598.156.945s-.052.663-.156.945c-.1.283-.254.527-.462.73a2.119 2.119 0 01-.79.468 3.382 3.382 0 01-1.122.167h-2.267V11h-1.053V3.104zm16.047 3.948c0 .34-.034.68-.102 1.02a4.49 4.49 0 01-.311.968 4.13 4.13 0 01-.526.854 3.43 3.43 0 01-.742.687c-.286.193-.61.344-.972.451a4.015 4.015 0 01-1.192.167c-.437 0-.836-.056-1.198-.167a3.513 3.513 0 01-.972-.45 3.572 3.572 0 01-.741-.688 4.125 4.125 0 01-.527-.854 4.484 4.484 0 01-.311-.967 5.194 5.194 0 01-.102-1.02c0-.613.086-1.173.257-1.682.176-.508.428-.945.758-1.31.33-.366.732-.649 1.208-.85.477-.203 1.019-.305 1.628-.305.605 0 1.146.102 1.622.306.48.2.882.483 1.208.849.33.365.58.802.752 1.31.176.509.263 1.069.263 1.681zm-1.052 0c0-.469-.063-.9-.188-1.294a2.908 2.908 0 00-.548-1.02 2.408 2.408 0 00-.876-.667 2.777 2.777 0 00-1.181-.241c-.444 0-.84.08-1.187.241-.348.158-.641.38-.881.666a2.957 2.957 0 00-.543 1.02 4.248 4.248 0 00-.188 1.295c0 .48.058.919.172 1.316.115.394.288.732.521 1.015.233.283.523.503.87.66.351.155.763.232 1.236.232.469 0 .879-.077 1.23-.231.35-.158.64-.378.87-.66a2.81 2.81 0 00.52-1.016 4.74 4.74 0 00.173-1.316zm3.704-3.948h1.514l2.235 6.645h.021l2.235-6.645h1.514V11h-.988V4.356h-.021L90.549 11h-1.053l-2.223-6.644h-.022V11h-.988V3.104zm14.742 4.641l-1.203-3.513-1.333 3.513h2.536zM96.203 11l2.96-8.019h1.283L103.309 11h-1.171l-.833-2.417h-3.104L97.321 11h-1.118zm8.828-7.896h6.424v.924h-2.686V11h-1.058V4.028h-2.68v-.924z" fill="#000"/><path fill-rule="evenodd" clip-rule="evenodd" d="M132.587 12.372l-.669-.744 4.587-4.128-4.587-4.128.669-.744L138 7.5l-5.413 4.872z" fill="#000"/><path d="M137.253 8h-14V7h14v1z" fill="#000"/></svg>