<svg width="16" height="10" fill="none" xmlns="http://www.w3.org/2000/svg"><path fill-rule="evenodd" clip-rule="evenodd" d="M15.633.627c.111-.361 0-.627-.53-.627h-1.75c-.445 0-.65.23-.761.483 0 0-.89 2.115-2.152 3.489-.407.398-.593.524-.816.524-.11 0-.272-.126-.272-.488V.628c0-.434-.129-.628-.5-.628h-2.75c-.279 0-.446.202-.446.392 0 .412.63.507.695 1.664v2.512c0 .551-.102.651-.324.651-.593 0-2.037-2.124-2.893-4.555C2.966.19 2.798 0 2.351 0H.6C.1 0 0 .23 0 .483 0 .935.593 3.176 2.763 6.14c1.446 2.025 3.484 3.122 5.339 3.122 1.113 0 1.25-.243 1.25-.663V7.07c0-.488.106-.585.458-.585.26 0 .705.126 1.743 1.102 1.187 1.157 1.383 1.676 2.05 1.676h1.75c.5 0 .75-.243.607-.724-.158-.48-.725-1.176-1.477-2-.408-.47-1.02-.976-1.205-1.23-.26-.325-.186-.47 0-.759 0 0 2.132-2.928 2.355-3.923z" fill="#fff"/></svg>